<svg width="15" height="18" viewBox="0 0 15 18" fill="none" xmlns="http://www.w3.org/2000/svg">
<path d="M4.05722 11.8836L3.33333 17.3337L7.157 15.0395C7.28171 14.9646 7.34406 14.9272 7.41063 14.9126C7.46951 14.8997 7.53049 14.8997 7.58937 14.9126C7.65593 14.9272 7.71829 14.9646 7.843 15.0395L11.6667 17.3337L10.9433 11.8812M11.1882 2.54106C11.3169 2.85232 11.564 3.09974 11.875 3.22891L12.9658 3.68073C13.2771 3.80967 13.5244 4.05699 13.6533 4.36828C13.7822 4.67957 13.7822 5.02933 13.6533 5.34062L13.2018 6.43062C13.0728 6.74205 13.0726 7.09216 13.2022 7.40344L13.6529 8.49312C13.7168 8.64729 13.7498 8.81256 13.7498 8.97946C13.7498 9.14636 13.7169 9.31164 13.6531 9.46584C13.5892 9.62003 13.4956 9.76014 13.3775 9.87814C13.2595 9.99614 13.1194 10.0897 12.9652 10.1535L11.8752 10.605C11.564 10.7337 11.3166 10.9808 11.1874 11.2919L10.7356 12.3826C10.6067 12.6939 10.3593 12.9412 10.0481 13.0702C9.73679 13.1991 9.38704 13.1991 9.07576 13.0702L7.9858 12.6187C7.67451 12.4901 7.32489 12.4903 7.0138 12.6194L5.92306 13.0706C5.61195 13.1992 5.26251 13.1991 4.95148 13.0703C4.64045 12.9415 4.39328 12.6944 4.26426 12.3835L3.81232 11.2924C3.68363 10.9811 3.43659 10.7337 3.12553 10.6045L2.03479 10.1527C1.72365 10.0238 1.47641 9.77665 1.34743 9.46553C1.21844 9.15442 1.21827 8.80482 1.34694 8.49358L1.79841 7.40359C1.92703 7.09229 1.92677 6.74265 1.79768 6.43154L1.34686 5.33998C1.28294 5.1858 1.25003 5.02054 1.25 4.85364C1.24997 4.68673 1.28283 4.52146 1.3467 4.36726C1.41057 4.21306 1.5042 4.07296 1.62223 3.95496C1.74026 3.83696 1.88039 3.74338 2.0346 3.67956L3.12456 3.22807C3.43554 3.09947 3.6828 2.85274 3.81206 2.54203L4.26386 1.45125C4.3928 1.13996 4.64011 0.892639 4.95139 0.763698C5.26267 0.634757 5.61242 0.634757 5.9237 0.763698L7.01365 1.21519C7.32494 1.34381 7.67456 1.34355 7.98566 1.21446L9.07686 0.764398C9.38809 0.63553 9.73777 0.635556 10.049 0.764471C10.3602 0.893387 10.6075 1.14063 10.7364 1.45184L11.1884 2.54295L11.1882 2.54106Z" stroke="#7C7C80" stroke-width="0.7" stroke-linecap="round" stroke-linejoin="round"/>
</svg>
