<svg width="17" height="16" viewBox="0 0 17 16" fill="none" xmlns="http://www.w3.org/2000/svg">
<path d="M12.174 16H9.83333V10C9.83333 9.26467 9.23533 8.66667 8.5 8.66667C7.76467 8.66667 7.16667 9.26467 7.16667 10V16H4.82667L4.72933 15.838C2.76067 12.5567 0.5 8.22467 0.5 3.81867C0.5 3.78 0.543333 0 4.31867 0C5.51667 0 6.27667 0.22 6.946 0.414C7.46933 0.566 7.92133 0.696667 8.50067 0.696667C9.08 0.696667 9.532 0.566 10.0553 0.414C10.7253 0.22 11.4847 0 12.682 0C16.4567 0 16.5007 3.78 16.5007 3.81867C16.5007 8.22333 14.24 12.5553 12.2713 15.838L12.174 16ZM10.5 15.3333H11.796C13.6973 12.1453 15.8333 7.988 15.8333 3.81867C15.8333 3.69067 15.7847 0.666667 12.6813 0.666667C11.578 0.666667 10.8973 0.864 10.24 1.05467C9.692 1.21333 9.17333 1.36333 8.5 1.36333C7.82667 1.36333 7.308 1.21333 6.76 1.05467C6.102 0.864 5.422 0.666667 4.318 0.666667C1.21533 0.666667 1.16733 3.69 1.16667 3.81933C1.16667 7.99 3.30267 12.146 5.20467 15.3333H6.5V10C6.5 8.89733 7.39733 8 8.5 8C9.60267 8 10.5 8.89733 10.5 10V15.3333Z" fill="#7C7C80"/>
</svg>
