<svg width="13" height="16" viewBox="0 0 13 16" fill="none" xmlns="http://www.w3.org/2000/svg">
<path d="M6.514 8C8.72 8 10.514 6.206 10.514 4C10.514 1.794 8.72 0 6.514 0C4.308 0 2.514 1.794 2.514 4C2.514 6.206 4.308 8 6.514 8ZM6.514 0.666667C8.352 0.666667 9.84733 2.162 9.84733 4C9.84733 5.838 8.352 7.33333 6.514 7.33333C4.676 7.33333 3.18067 5.838 3.18067 4C3.18067 2.162 4.67667 0.666667 6.514 0.666667ZM9.5 9.33333H3.5C1.846 9.33333 0.5 10.6793 0.5 12.3333V16H1.16667V12.3333C1.16667 11.0467 2.21333 10 3.5 10H3.83333V12.0427C3.25267 12.1867 2.81933 12.7087 2.81933 13.3333C2.81933 14.0687 3.41733 14.6667 4.15267 14.6667C4.888 14.6667 5.486 14.0687 5.486 13.3333C5.486 12.7193 5.066 12.206 4.5 12.052V10H8.5V12.3673C7.74 12.522 7.16667 13.1953 7.16667 14V16H7.83333V14C7.83333 13.4487 8.282 13 8.83333 13C9.38467 13 9.83333 13.4487 9.83333 14V16H10.5V14C10.5 13.1947 9.92667 12.522 9.16667 12.3673V10H9.5C10.7867 10 11.8333 11.0467 11.8333 12.3333V16H12.5V12.3333C12.5 10.6793 11.154 9.33333 9.5 9.33333ZM4.81933 13.3333C4.81933 13.7013 4.52067 14 4.15267 14C3.78467 14 3.486 13.7013 3.486 13.3333C3.486 12.9653 3.78467 12.6667 4.15267 12.6667C4.52067 12.6667 4.81933 12.9653 4.81933 13.3333Z" fill="#7C7C80"/>
</svg>
