<svg width="17" height="16" viewBox="0 0 17 16" fill="none" xmlns="http://www.w3.org/2000/svg">
<path d="M14.236 4.28566C14.1053 4.15632 14.104 3.94499 14.2333 3.81432L15.9293 2.09899C16.058 1.96766 16.2693 1.96699 16.4007 2.09632C16.5313 2.22566 16.5327 2.43699 16.4033 2.56766L14.7073 4.28299C14.642 4.34899 14.556 4.38166 14.4707 4.38166C14.386 4.38166 14.3013 4.35032 14.236 4.28566ZM11.752 2.46632C11.8007 2.49166 11.8533 2.50366 11.9047 2.50366C12.0253 2.50366 12.1413 2.43832 12.2007 2.32366L13.1467 0.498991C13.2313 0.335658 13.1673 0.134324 13.004 0.0496576C12.8413 -0.0356757 12.6393 0.0276576 12.5547 0.192324L11.6087 2.01699C11.524 2.18032 11.5887 2.38166 11.752 2.46632ZM2.24199 4.23166C2.30732 4.29766 2.39332 4.33032 2.47866 4.33032C2.56332 4.33032 2.64799 4.29832 2.71332 4.23366C2.84399 4.10432 2.84532 3.89299 2.71599 3.76232L1.06999 2.09832C0.940656 1.96699 0.729989 1.96699 0.598656 2.09566C0.467989 2.22499 0.466656 2.43632 0.595989 2.56699L2.24199 4.23166ZM4.79799 2.32366C4.85732 2.43832 4.97332 2.50366 5.09399 2.50366C5.14599 2.50366 5.19799 2.49166 5.24666 2.46632C5.40999 2.38166 5.47399 2.18032 5.38932 2.01699L4.44466 0.192324C4.35999 0.0283243 4.15866 -0.0343424 3.99532 0.0496576C3.83199 0.134324 3.76799 0.335658 3.85266 0.498991L4.79799 2.32366ZM16.4993 14.5997C16.4993 15.3717 15.8713 15.9997 15.0993 15.9997H1.89999C1.12799 15.9997 0.499989 15.3717 0.499989 14.5997C0.499989 13.5337 1.36732 12.6663 2.43332 12.6663H2.56532L3.16199 6.70099C3.31532 5.16099 4.59932 3.99966 6.14732 3.99966H10.8533C12.4013 3.99966 13.6847 5.16099 13.8387 6.70099L14.4353 12.6663H14.5673C15.6333 12.6663 16.5007 13.5337 16.5007 14.5997H16.4993ZM3.23466 12.6663H13.7633L13.1733 6.76766C13.054 5.56966 12.056 4.66632 10.852 4.66632H6.14599C4.94199 4.66632 3.94399 5.56966 3.82466 6.76766L3.23466 12.6663ZM15.8327 14.5997C15.8327 13.901 15.2647 13.333 14.566 13.333H2.43332C1.73466 13.333 1.16666 13.901 1.16666 14.5997C1.16666 15.0037 1.49599 15.333 1.89999 15.333H15.1C15.504 15.333 15.8327 15.0037 15.8327 14.5997ZM8.16599 6.66632H6.78266C6.26666 6.66632 5.83866 7.05366 5.78866 7.56032L5.62132 8.96032C5.59932 9.14299 5.72999 9.30899 5.91266 9.33099C5.92666 9.33232 5.93999 9.33299 5.95266 9.33299C6.11932 9.33299 6.26332 9.20832 6.28332 9.03966L6.45132 7.63299C6.46799 7.46232 6.61066 7.33299 6.78266 7.33299H8.16599C8.34999 7.33299 8.49932 7.18366 8.49932 6.99966C8.49932 6.81566 8.34999 6.66632 8.16599 6.66632Z" fill="#7C7C80"/>
</svg>
